<svg width="43" height="44" viewBox="0 0 43 44" fill="none" xmlns="http://www.w3.org/2000/svg">
<mask id="path-1-inside-1_265_1084" fill="white">
<path d="M1.85156 11.7737L20.8554 20.22L22.1418 17.3255L3.13791 8.87939L1.85156 11.7737ZM23.0822 41.9996V18.7727H19.9149V41.9996H23.0822ZM22.1418 20.22L41.1456 11.7737L39.8592 8.87939L20.8554 17.3255L22.1418 20.22Z"/>
</mask>
<path d="M1.85156 11.7737L20.8554 20.22L22.1418 17.3255L3.13791 8.87939L1.85156 11.7737ZM23.0822 41.9996V18.7727H19.9149V41.9996H23.0822ZM22.1418 20.22L41.1456 11.7737L39.8592 8.87939L20.8554 17.3255L22.1418 20.22Z" fill="black"/>
<path d="M1.85156 11.7737L-1.80369 10.1492L-3.42821 13.8044L0.226995 15.429L1.85156 11.7737ZM20.8554 20.22L19.2308 23.8752L22.8861 25.4998L24.5107 21.8445L20.8554 20.22ZM22.1418 17.3255L25.797 18.95L27.4215 15.2948L23.7663 13.6703L22.1418 17.3255ZM3.13791 8.87939L4.76247 5.22415L1.1072 3.59959L-0.517344 7.25486L3.13791 8.87939ZM23.0822 41.9996V45.9996H27.0822V41.9996H23.0822ZM23.0822 18.7727H27.0822V14.7727H23.0822V18.7727ZM19.9149 18.7727V14.7727H15.9149V18.7727H19.9149ZM19.9149 41.9996H15.9149V45.9996H19.9149V41.9996ZM22.1418 20.22L18.4865 21.8445L20.111 25.4998L23.7663 23.8752L22.1418 20.22ZM41.1456 11.7737L42.7702 15.429L46.4254 13.8044L44.8008 10.1492L41.1456 11.7737ZM39.8592 8.87939L43.5145 7.25486L41.89 3.59958L38.2347 5.22415L39.8592 8.87939ZM20.8554 17.3255L19.2308 13.6703L15.5757 15.2948L17.2001 18.95L20.8554 17.3255ZM0.226995 15.429L19.2308 23.8752L22.48 16.5647L3.47613 8.11848L0.226995 15.429ZM24.5107 21.8445L25.797 18.95L18.4865 15.7011L17.2001 18.5955L24.5107 21.8445ZM23.7663 13.6703L4.76247 5.22415L1.51336 12.5346L20.5172 20.9808L23.7663 13.6703ZM-0.517344 7.25486L-1.80369 10.1492L5.50682 13.3983L6.79317 10.5039L-0.517344 7.25486ZM27.0822 41.9996V18.7727H19.0822V41.9996H27.0822ZM23.0822 14.7727H19.9149V22.7727H23.0822V14.7727ZM15.9149 18.7727V41.9996H23.9149V18.7727H15.9149ZM19.9149 45.9996H23.0822V37.9996H19.9149V45.9996ZM23.7663 23.8752L42.7702 15.429L39.521 8.11848L20.5172 16.5647L23.7663 23.8752ZM44.8008 10.1492L43.5145 7.25486L36.204 10.5039L37.4903 13.3983L44.8008 10.1492ZM38.2347 5.22415L19.2308 13.6703L22.48 20.9808L41.4838 12.5346L38.2347 5.22415ZM17.2001 18.95L18.4865 21.8445L25.797 18.5955L24.5107 15.7011L17.2001 18.95Z" fill="white" mask="url(#path-1-inside-1_265_1084)"/>
<path d="M2.49609 32.7303V11.15C2.49609 10.6493 2.79095 10.1956 3.24848 9.99228L20.9853 2.10919C21.3131 1.9636 21.6868 1.9636 22.0145 2.10919L39.7514 9.99228C40.209 10.1956 40.5038 10.6493 40.5038 11.15V32.7303C40.5038 33.2309 40.209 33.6847 39.7514 33.8881L22.0145 41.7711C21.6868 41.9166 21.3131 41.9166 20.9853 41.7711L3.24848 33.8881C2.79095 33.6847 2.49609 33.2309 2.49609 32.7303Z" stroke="white" stroke-width="4" stroke-linecap="round" stroke-linejoin="round"/>
<path d="M11.9961 6.10327L30.2476 14.215C30.7052 14.4184 30.9999 14.8721 30.9999 15.3728V22.9956" stroke="white" stroke-width="4" stroke-linecap="round" stroke-linejoin="round"/>
</svg>
