<svg width="43" height="45" viewBox="0 0 43 45" fill="none" xmlns="http://www.w3.org/2000/svg">
<mask id="path-1-inside-1_360_535" fill="white">
<path d="M1.85156 12.274L20.8554 20.7202L22.1418 17.8258L3.13791 9.37964L1.85156 12.274ZM23.0822 42.4999V19.273H19.9149V42.4999H23.0822ZM22.1418 20.7202L41.1456 12.274L39.8592 9.37964L20.8554 17.8258L22.1418 20.7202Z"/>
</mask>
<path d="M1.85156 12.274L20.8554 20.7202L22.1418 17.8258L3.13791 9.37964L1.85156 12.274ZM23.0822 42.4999V19.273H19.9149V42.4999H23.0822ZM22.1418 20.7202L41.1456 12.274L39.8592 9.37964L20.8554 17.8258L22.1418 20.7202Z" fill="black"/>
<path d="M1.85156 12.274L-1.80369 10.6494L-3.42821 14.3047L0.226995 15.9292L1.85156 12.274ZM20.8554 20.7202L19.2308 24.3754L22.8861 26L24.5107 22.3447L20.8554 20.7202ZM22.1418 17.8258L25.797 19.4503L27.4215 15.7951L23.7663 14.1705L22.1418 17.8258ZM3.13791 9.37964L4.76247 5.72439L1.1072 4.09983L-0.517344 7.7551L3.13791 9.37964ZM23.0822 42.4999V46.4999H27.0822V42.4999H23.0822ZM23.0822 19.273H27.0822V15.273H23.0822V19.273ZM19.9149 19.273V15.273H15.9149V19.273H19.9149ZM19.9149 42.4999H15.9149V46.4999H19.9149V42.4999ZM22.1418 20.7202L18.4865 22.3447L20.111 26L23.7663 24.3754L22.1418 20.7202ZM41.1456 12.274L42.7702 15.9292L46.4254 14.3047L44.8008 10.6494L41.1456 12.274ZM39.8592 9.37964L43.5145 7.75511L41.89 4.09983L38.2347 5.72439L39.8592 9.37964ZM20.8554 17.8258L19.2308 14.1705L15.5757 15.7951L17.2001 19.4503L20.8554 17.8258ZM0.226995 15.9292L19.2308 24.3754L22.48 17.065L3.47613 8.61873L0.226995 15.9292ZM24.5107 22.3447L25.797 19.4503L18.4865 16.2013L17.2001 19.0957L24.5107 22.3447ZM23.7663 14.1705L4.76247 5.72439L1.51336 13.0349L20.5172 21.481L23.7663 14.1705ZM-0.517344 7.7551L-1.80369 10.6494L5.50682 13.8985L6.79317 11.0042L-0.517344 7.7551ZM27.0822 42.4999V19.273H19.0822V42.4999H27.0822ZM23.0822 15.273H19.9149V23.273H23.0822V15.273ZM15.9149 19.273V42.4999H23.9149V19.273H15.9149ZM19.9149 46.4999H23.0822V38.4999H19.9149V46.4999ZM23.7663 24.3754L42.7702 15.9292L39.521 8.61873L20.5172 17.065L23.7663 24.3754ZM44.8008 10.6494L43.5145 7.75511L36.204 11.0042L37.4903 13.8985L44.8008 10.6494ZM38.2347 5.72439L19.2308 14.1705L22.48 21.481L41.4838 13.0349L38.2347 5.72439ZM17.2001 19.4503L18.4865 22.3447L25.797 19.0957L24.5107 16.2013L17.2001 19.4503Z" fill="#FF6600" mask="url(#path-1-inside-1_360_535)"/>
<path d="M2.49609 33.2304V11.6501C2.49609 11.1495 2.79095 10.6957 3.24848 10.4924L20.9853 2.60931C21.3131 2.46372 21.6868 2.46372 22.0145 2.60931L39.7514 10.4924C40.209 10.6957 40.5038 11.1495 40.5038 11.6501V33.2304C40.5038 33.7311 40.209 34.1848 39.7514 34.3882L22.0145 42.2712C21.6868 42.4167 21.3131 42.4167 20.9853 42.2712L3.24848 34.3882C2.79095 34.1848 2.49609 33.7311 2.49609 33.2304Z" stroke="#FF6600" stroke-width="4" stroke-linecap="round" stroke-linejoin="round"/>
<path d="M11.9961 6.60352L30.2476 14.7153C30.7052 14.9186 30.9999 15.3723 30.9999 15.873V23.4958" stroke="#FF6600" stroke-width="4" stroke-linecap="round" stroke-linejoin="round"/>
</svg>
