<svg width="47" height="47" viewBox="0 0 47 47" fill="none" xmlns="http://www.w3.org/2000/svg">
<g clip-path="url(#clip0_360_527)">
<path d="M45.1965 10.6301L36.3693 5.44357C36.0306 5.24383 35.6444 5.13917 35.2512 5.14064H29.3762C28.7919 5.14064 28.2315 5.37275 27.8183 5.78592C27.4052 6.19909 27.1731 6.75946 27.1731 7.34377C27.1731 8.31761 26.7862 9.25156 26.0976 9.94017C25.409 10.6288 24.475 11.0156 23.5012 11.0156C22.5274 11.0156 21.5934 10.6288 20.9048 9.94017C20.2162 9.25156 19.8293 8.31761 19.8293 7.34377C19.8293 6.75946 19.5972 6.19909 19.184 5.78592C18.7709 5.37275 18.2105 5.14064 17.6262 5.14064H11.7512C11.3591 5.14039 10.9742 5.24566 10.6368 5.44541L1.80592 10.6301C1.01085 11.1047 0.422323 11.8598 0.156253 12.7467C-0.109816 13.6336 -0.0341384 14.588 0.368382 15.4219L3.65471 22.1781C3.94772 22.7948 4.40997 23.3156 4.98759 23.6796C5.56521 24.0437 6.2344 24.2361 6.91717 24.2344H9.54807V38.1875C9.54807 39.1614 9.93493 40.0953 10.6235 40.7839C11.3121 41.4725 12.2461 41.8594 13.2199 41.8594H33.7824C34.7563 41.8594 35.6902 41.4725 36.3789 40.7839C37.0675 40.0953 37.4543 39.1614 37.4543 38.1875V24.2344H40.0834C40.7648 24.2354 41.4327 24.0434 42.0094 23.6804C42.5862 23.3174 43.0483 22.7985 43.3422 22.1836L46.634 15.4219C47.0365 14.588 47.1122 13.6336 46.8461 12.7467C46.5801 11.8598 45.9915 11.1047 45.1965 10.6301ZM7.41287 19.8281L4.62041 14.0872L9.54807 11.1992V19.8281H7.41287ZM33.0481 37.4531H13.9543V9.54689H15.7297C16.2083 11.2398 17.2266 12.7301 18.6296 13.7914C20.0326 14.8528 21.7438 15.4271 23.503 15.4271C25.2623 15.4271 26.9734 14.8528 28.3765 13.7914C29.7795 12.7301 30.7977 11.2398 31.2764 9.54689H33.0481V37.4531ZM39.5877 19.8281H37.4543V11.1992L42.3801 14.0927L39.5877 19.8281Z" fill="#FF6600"/>
</g>
<defs>
<clipPath id="clip0_360_527">
<rect width="47" height="47" fill="white"/>
</clipPath>
</defs>
</svg>
