<svg width="52" height="42" viewBox="0 0 52 42" fill="none" xmlns="http://www.w3.org/2000/svg">
<g clip-path="url(#clip0_275_2790)">
<path d="M10.4012 7.875C12.5543 7.875 14.3012 6.11133 14.3012 3.9375C14.3012 1.76367 12.5543 0 10.4012 0C8.24809 0 6.50122 1.76367 6.50122 3.9375C6.50122 6.11133 8.24809 7.875 10.4012 7.875ZM41.6012 7.875C43.7543 7.875 45.5012 6.11133 45.5012 3.9375C45.5012 1.76367 43.7543 0 41.6012 0C39.4481 0 37.7012 1.76367 37.7012 3.9375C37.7012 6.11133 39.4481 7.875 41.6012 7.875ZM51.8143 38.3988L48.2393 29.3754L44.9 33.1816L44.7375 34.6746L46.9881 40.3512C47.3943 41.3766 48.3693 42 49.4012 42C49.7262 42 50.0512 41.9426 50.3681 41.8113C51.7006 41.2699 52.3506 39.7441 51.8143 38.3988ZM49.0356 21.1887L47.5325 14.6098C47.1587 12.9691 46.0212 11.591 44.4856 10.9266C42.9825 10.2703 41.3168 10.377 39.9275 11.1973C38.0831 12.2965 36.7018 14.0273 36.0193 16.0699L35.1012 18.8508L33.8012 19.6875V11.8125C33.8012 11.0906 33.2162 10.5 32.5012 10.5H19.5012C18.7862 10.5 18.2012 11.0906 18.2012 11.8125V19.6875L16.8931 18.8508L15.975 16.0699C15.3006 14.0191 13.9112 12.2965 12.0668 11.1973C10.6693 10.377 9.01184 10.2703 7.50872 10.9266C5.97309 11.591 4.83559 12.9691 4.46184 14.6098L2.96684 21.1887C2.59309 22.8293 3.02372 24.5684 4.13684 25.8398L9.59684 32.066L10.4175 39.6621C10.5637 40.9992 11.685 42 13.0012 42C13.0987 42 13.1881 41.9918 13.2856 41.9836C14.7156 41.8277 15.7393 40.5316 15.585 39.0879L14.7643 31.4754C14.6425 30.409 14.2037 29.4164 13.4968 28.6043L9.97872 24.5848L11.4087 18.818L11.9612 20.4914C12.2943 21.5168 12.9281 22.4109 13.9518 23.1656L18.1037 25.8316C18.4775 26.0695 19.0868 26.209 19.5012 26.2418H32.5012C32.9156 26.209 33.525 26.0695 33.8987 25.8316L38.0506 23.1656C39.0743 22.4109 39.7081 21.525 40.0412 20.4914L40.5937 18.818L42.0237 24.5848L38.5056 28.6043C37.7987 29.4164 37.36 30.409 37.2381 31.4754L36.4175 39.0879C36.2631 40.5316 37.295 41.8277 38.7168 41.9836C38.8143 41.9918 38.9037 42 39.0012 42C40.3093 42 41.4387 41.0074 41.585 39.6621L42.4056 32.066L47.8656 25.8398C48.9706 24.5684 49.4093 22.8293 49.0356 21.1887ZM3.76309 29.3754L0.188092 38.3988C-0.348158 39.7441 0.301842 41.2699 1.63434 41.8113C2.99934 42.3527 4.48622 41.6719 5.01434 40.3512L7.26497 34.6746L7.10247 33.1816L3.76309 29.3754Z" fill="#FF6600"/>
</g>
<defs>
<clipPath id="clip0_275_2790">
<rect width="52" height="42" fill="white"/>
</clipPath>
</defs>
</svg>
