<svg width="55" height="36" viewBox="0 0 55 36" fill="none" xmlns="http://www.w3.org/2000/svg">
<path d="M18.4719 33.3891C20.9654 33.3891 22.9867 31.2692 22.9867 28.654C22.9867 26.0388 20.9654 23.9189 18.4719 23.9189C15.9784 23.9189 13.957 26.0388 13.957 28.654C13.957 31.2692 15.9784 33.3891 18.4719 33.3891Z" stroke="white" stroke-width="4" stroke-miterlimit="1.5" stroke-linecap="round" stroke-linejoin="round"/>
<path d="M41.0461 33.3891C43.5396 33.3891 45.5609 31.2692 45.5609 28.654C45.5609 26.0388 43.5396 23.9189 41.0461 23.9189C38.5525 23.9189 36.5312 26.0388 36.5312 28.654C36.5312 31.2692 38.5525 33.3891 41.0461 33.3891Z" stroke="white" stroke-width="4" stroke-miterlimit="1.5" stroke-linecap="round" stroke-linejoin="round"/>
<path d="M23.0976 28.654H34.2719V4.03161C34.2719 3.24708 33.6655 2.61108 32.9174 2.61108H2.66797" stroke="white" stroke-width="4" stroke-linecap="round"/>
<path d="M13.1658 28.654H8.53805C7.79 28.654 7.18359 28.0181 7.18359 27.2335V15.6326" stroke="white" stroke-width="4" stroke-linecap="round"/>
<path d="M4.92578 9.71362H13.9555" stroke="white" stroke-width="4" stroke-linecap="round" stroke-linejoin="round"/>
<path d="M34.2734 9.71362H46.9378C47.473 9.71362 47.9582 10.0442 48.1755 10.5572L52.2161 20.092C52.2931 20.2738 52.3328 20.4703 52.3328 20.6689V27.2334C52.3328 28.018 51.7265 28.6539 50.9784 28.6539H46.6893" stroke="white" stroke-width="4" stroke-linecap="round"/>
<path d="M34.2734 28.6541H36.5309" stroke="white" stroke-width="4" stroke-linecap="round"/>
</svg>
