<svg width="34" height="47" viewBox="0 0 34 47" fill="none" xmlns="http://www.w3.org/2000/svg">
<path d="M12.2734 16.4293L12.2971 16.4031" stroke="white" stroke-width="4" stroke-linecap="round" stroke-linejoin="round"/>
<path d="M21.7305 16.4293L21.7541 16.4031" stroke="white" stroke-width="4" stroke-linecap="round" stroke-linejoin="round"/>
<path d="M12.2734 25.8883L12.2971 25.8621" stroke="white" stroke-width="4" stroke-linecap="round" stroke-linejoin="round"/>
<path d="M21.7305 25.8883L21.7541 25.8621" stroke="white" stroke-width="4" stroke-linecap="round" stroke-linejoin="round"/>
<path d="M12.2734 35.3468L12.2971 35.3206" stroke="white" stroke-width="4" stroke-linecap="round" stroke-linejoin="round"/>
<path d="M21.7305 35.3468L21.7541 35.3206" stroke="white" stroke-width="4" stroke-linecap="round" stroke-linejoin="round"/>
<path d="M2.8125 43.3635V8.36578C2.8125 7.58218 3.44773 6.94695 4.23133 6.94695H17.0008V3.63636C17.0008 2.85276 17.6359 2.21753 18.4196 2.21753H29.7702C30.5539 2.21753 31.189 2.85276 31.189 3.63636V43.3635C31.189 44.1472 30.5539 44.7823 29.7702 44.7823H4.23133C3.44773 44.7823 2.8125 44.1472 2.8125 43.3635Z" stroke="white" stroke-width="4" stroke-linecap="round" stroke-linejoin="round"/>
</svg>
